<svg width="24" height="24" viewBox="0 0 24 24" fill="none" xmlns="http://www.w3.org/2000/svg">
<path fill-rule="evenodd" clip-rule="evenodd" d="M5.60229 19.1367C5.41029 19.1367 5.21829 19.0637 5.07229 18.9167C4.77929 18.6237 4.77929 18.1497 5.07229 17.8567L17.8643 5.06472C18.1573 4.77172 18.6313 4.77172 18.9243 5.06472C19.2173 5.35772 19.2173 5.83172 18.9243 6.12472L6.13229 18.9167C5.98629 19.0637 5.79429 19.1367 5.60229 19.1367Z" fill="#1C1C1D"/>
<path fill-rule="evenodd" clip-rule="evenodd" d="M18.3963 19.1396C18.2043 19.1396 18.0123 19.0666 17.8663 18.9196L5.07034 6.12265C4.77734 5.82965 4.77734 5.35565 5.07034 5.06265C5.36434 4.76965 5.83834 4.76965 6.13034 5.06265L18.9263 17.8596C19.2193 18.1526 19.2193 18.6266 18.9263 18.9196C18.7803 19.0666 18.5873 19.1396 18.3963 19.1396Z" fill="#1C1C1D"/>
</svg>
