<svg width="25" height="24" viewBox="0 0 25 24" fill="none" xmlns="http://www.w3.org/2000/svg">
<path d="M19.9817 0C21.2213 0 22.2812 0.440104 23.1614 1.32031C24.0416 2.20052 24.4817 3.26042 24.4817 4.5V19.5C24.4817 20.7396 24.0416 21.7995 23.1614 22.6797C22.2812 23.5599 21.2213 24 19.9817 24H17.0442V14.7031H20.1536L20.6223 11.0781H17.0442V8.76562C17.0442 8.18229 17.1666 7.74479 17.4114 7.45312C17.6562 7.16146 18.1327 7.01562 18.8411 7.01562L20.7473 7V3.76562C20.0911 3.67188 19.164 3.625 17.9661 3.625C16.5494 3.625 15.4166 4.04167 14.5676 4.875C13.7187 5.70833 13.2942 6.88542 13.2942 8.40625V11.0781H10.1692V14.7031H13.2942V24H4.98169C3.74211 24 2.68221 23.5599 1.802 22.6797C0.921794 21.7995 0.481689 20.7396 0.481689 19.5V4.5C0.481689 3.26042 0.921794 2.20052 1.802 1.32031C2.68221 0.440104 3.74211 0 4.98169 0H19.9817Z" fill="#8D9198"/>
</svg>
