<svg width="30" height="24" viewBox="0 0 30 24" fill="none" xmlns="http://www.w3.org/2000/svg">
<path d="M29.4818 2.87536C28.3738 3.35605 27.202 3.67382 26.003 3.81878C27.268 3.06304 28.216 1.87413 28.6711 0.472594C27.4823 1.18025 26.181 1.67884 24.8237 1.94668C23.9164 0.962835 22.7083 0.307933 21.3888 0.084689C20.0692 -0.138554 18.7129 0.0824882 17.5325 0.71315C16.3521 1.34381 15.4145 2.34842 14.8666 3.56942C14.3186 4.79041 14.1915 6.15874 14.5051 7.45978C12.1014 7.33821 9.75029 6.71235 7.60432 5.62286C5.45836 4.53337 3.5656 3.00463 2.04899 1.13593C1.51704 2.06486 1.23753 3.11685 1.23824 4.1873C1.23635 5.1814 1.48031 6.16054 1.94839 7.03755C2.41647 7.91456 3.09414 8.66221 3.92108 9.21395C2.95994 9.1878 2.01934 8.92989 1.17927 8.46216V8.53587C1.18648 9.92872 1.67456 11.2763 2.56096 12.3508C3.44736 13.4252 4.67767 14.1605 6.04377 14.4322C5.5179 14.5923 4.97192 14.6766 4.42227 14.6828C4.04179 14.6784 3.66226 14.6439 3.28722 14.5796C3.67625 15.7778 4.42909 16.8249 5.44098 17.5752C6.45287 18.3256 7.67349 18.7418 8.93299 18.7661C6.80617 20.4395 4.18035 21.3529 1.47409 21.3605C0.981354 21.3621 0.489008 21.3325 0 21.272C2.76308 23.056 5.98306 24.0031 9.27203 23.9991C11.5417 24.0226 13.7933 23.5937 15.8953 22.7374C17.9973 21.881 19.9076 20.6144 21.5147 19.0115C23.1217 17.4086 24.3932 15.5015 25.2549 13.4017C26.1167 11.3019 26.5514 9.0514 26.5336 6.7817C26.5336 6.53111 26.5336 6.26577 26.5336 6.00043C27.6903 5.13781 28.688 4.08032 29.4818 2.87536Z" fill="#8D9198"/>
</svg>
