<svg width="191" height="40" viewBox="0 0 191 40" fill="none" xmlns="http://www.w3.org/2000/svg">
<rect width="40" height="40" rx="8" fill="#1C1C1D"/>
<path fill-rule="evenodd" clip-rule="evenodd" d="M20.0001 11.2728C21.6194 11.2728 22.932 9.97033 22.932 8.36368C22.932 6.75703 21.6194 5.45459 20.0001 5.45459C18.3809 5.45459 17.0683 6.75703 17.0683 8.36368C17.0683 9.97033 18.3809 11.2728 20.0001 11.2728ZM15.6114 12.1491C16.8543 13.3812 18.4657 14.0238 20.0928 14.0764C21.7194 14.0235 23.3304 13.3809 24.5728 12.1492L24.5748 12.1472C25.751 10.9802 27.6561 10.9819 28.8319 12.1487C30.0079 13.3154 30.0051 15.2099 28.8292 16.3765C27.6536 17.5431 25.743 17.5472 24.5669 16.3803L24.5694 16.3785L24.5741 16.3738C23.3316 15.1411 21.7194 14.4988 20.0915 14.4466C18.464 14.4991 16.8523 15.1414 15.6102 16.3737L15.6148 16.3784L15.6173 16.3803C14.4413 17.5471 12.5307 17.5431 11.355 16.3765C10.1792 15.2098 10.1763 13.3154 11.3524 12.1486C12.5282 10.9819 14.4333 10.9802 15.6095 12.1472L15.6114 12.1491ZM13.2569 19.8947C11.63 19.8419 10.0188 19.1993 8.77615 17.9674L8.77418 17.9654C7.59798 16.7984 5.69293 16.8001 4.51709 17.9669C3.34106 19.1336 3.34392 21.0281 4.51977 22.1947C5.69544 23.3613 7.60603 23.3654 8.78206 22.1985L8.77955 22.1967L8.7749 22.192C10.0173 20.9594 11.6292 20.3172 13.2569 20.2648C14.7905 20.3142 16.31 20.8871 17.5196 21.9839C17.5801 22.0565 17.6445 22.1268 17.713 22.1947C18.3032 22.7804 19.0787 23.0731 19.8535 23.0717C20.6283 23.0731 21.4038 22.7804 21.9941 22.1947C22.0625 22.1268 22.1269 22.0565 22.1874 21.9839C23.4356 20.8521 25.0137 20.2782 26.5967 20.2617C28.2739 20.2792 29.9456 20.9224 31.2253 22.192L31.2206 22.1967L31.2181 22.1985C32.3941 23.3654 34.3047 23.3613 35.4804 22.1947C36.6562 21.0281 36.6591 19.1336 35.4831 17.9669C34.3072 16.8001 32.4022 16.7984 31.226 17.9654L31.224 17.9674C29.944 19.2363 28.273 19.8799 26.5967 19.8978C25.0135 19.8809 23.435 19.3059 22.1863 18.1731C22.1269 18.1022 22.0637 18.0334 21.9968 17.9669C21.4051 17.3798 20.6287 17.0877 19.8535 17.091C19.0783 17.0877 18.302 17.3798 17.7103 17.9669C17.6433 18.0334 17.5801 18.1022 17.5208 18.1731C16.3105 19.2709 14.7907 19.8449 13.2569 19.8947ZM20.092 25.7128C18.4652 25.6599 16.854 25.0174 15.6114 23.7855L15.6095 23.7835C14.4333 22.6165 12.5282 22.6182 11.3524 23.785C10.1763 24.9517 10.1792 26.8462 11.355 28.0128C12.5307 29.1794 14.4413 29.1835 15.6173 28.0166L15.6148 28.0148L15.6102 28.0101C16.8526 26.7775 18.4645 26.1353 20.0923 26.0829C21.72 26.1353 23.3318 26.7776 24.5741 28.0101L24.5694 28.0148L24.5669 28.0166C25.743 29.1835 27.6536 29.1794 28.8292 28.0128C30.0051 26.8462 30.0079 24.9517 28.8319 23.785C27.6561 22.6182 25.751 22.6165 24.5748 23.7835L24.5728 23.7855C23.3301 25.0174 21.7189 25.66 20.092 25.7128ZM22.932 31.6364C22.932 33.243 21.6194 34.5455 20.0001 34.5455C18.3809 34.5455 17.0683 33.243 17.0683 31.6364C17.0683 30.0297 18.3809 28.7273 20.0001 28.7273C21.6194 28.7273 22.932 30.0297 22.932 31.6364Z" fill="white"/>
<path d="M58.4286 14.3463H56V25.6537H58.4286V22.1039L60.1995 20.3896L64.281 25.6537H67.3336L61.9198 18.7619L66.5072 14.3463H63.4714L58.4286 19.2641V14.3463Z" fill="black"/>
<path d="M75.5043 18.6926H71.4397V16.4935H78.2028V14.3463H69.028V25.6537H78.5907V23.5238H71.4397V20.8225H75.5043V18.6926Z" fill="black"/>
<path d="M86.196 25.6537C88.2704 25.6537 89.4679 25.0823 90.4124 24.1645C91.4412 23.1255 91.9977 21.6364 91.9977 19.9913C91.9977 18.3983 91.4749 16.9784 90.5136 15.9567C89.5354 14.9351 88.2198 14.3463 86.196 14.3463H81.0183V25.6537H86.196ZM83.43 23.5238V16.4935H86.1117C87.4103 16.4935 88.0006 16.8225 88.5572 17.3939C89.1643 18.0346 89.4848 18.9351 89.4848 20.0087C89.4848 21.1515 89.1137 22.0519 88.4728 22.71C87.8994 23.2294 87.3766 23.5238 86.1117 23.5238H83.43Z" fill="black"/>
<path d="M97.018 25.6537V21.4978H100.29L102.516 25.6537H105.282L102.702 21.0996C104.051 20.4935 104.928 19.368 104.928 17.9134C104.928 17.013 104.591 16.1991 104.017 15.5758C103.309 14.8139 102.28 14.3463 100.712 14.3463H94.6062V25.6537H97.018ZM100.796 16.4416C101.234 16.4416 101.723 16.4935 102.111 16.9264C102.364 17.1861 102.499 17.5325 102.499 17.9134C102.499 18.7792 101.808 19.4026 100.965 19.4026H97.018V16.4416H100.796Z" fill="black"/>
<path d="M113.966 25.6537V20.9091H118.03V18.7792H113.966V16.4935H120.645V14.3463H111.554V25.6537H113.966Z" fill="black"/>
<path d="M125.149 25.6537V14.3463H122.737V25.6537H125.149Z" fill="black"/>
<path d="M136.325 14.3463V21.3593H136.308L130.692 14.3463H128.617V25.6537H131.046V18.658H131.063L136.662 25.6537H138.753V14.3463H136.325Z" fill="black"/>
<path d="M140.687 25.6537H143.234L144.229 23.2641H149.322L150.334 25.6537H152.982L147.872 14.3463H145.797L140.687 25.6537ZM146.725 17.3074H146.826L148.496 21.3074H145.055L146.725 17.3074Z" fill="black"/>
<path d="M162.628 14.3463V21.3593H162.611L156.995 14.3463H154.92V25.6537H157.349V18.658H157.366L162.965 25.6537H165.056V14.3463H162.628Z" fill="black"/>
<path d="M177.733 22.0693C176.772 23.0563 175.372 23.8701 173.871 23.8701C171.594 23.8701 170.127 22.1385 170.127 20.0087C170.127 17.8961 171.56 16.1472 173.787 16.1472C174.967 16.1472 176.384 16.7013 177.396 17.6017L178.914 15.974C177.598 14.8139 175.608 14 173.584 14C170.026 14 167.597 16.7359 167.597 19.9913C167.597 23.316 170.009 26 173.669 26C176.08 26 178.003 24.8918 179.268 23.6797L177.733 22.0693Z" fill="black"/>
<path d="M187.914 18.6926H183.849V16.4935H190.612V14.3463H181.437V25.6537H191V23.5238H183.849V20.8225H187.914V18.6926Z" fill="black"/>
</svg>
